HIERARCHY
ROOT Hips
{
	OFFSET	0.000000	0.000000	0.000000
	CHANNELS 6 Xposition Yposition Zposition Zrotation Xrotation Yrotation
	JOINT LeftHip
	{
		OFFSET	4.740440	-3.195970	-0.322709
		CHANNELS 3 Zrotation Xrotation Yrotation
		JOINT LeftKnee
		{
			OFFSET	-1.605680	-15.592300	1.005510
			CHANNELS 3 Zrotation Xrotation Yrotation
			JOINT LeftAnkle
			{
				OFFSET	-0.632401	-16.421000	-1.413730
				CHANNELS 3 Zrotation Xrotation Yrotation
				End Site
				{
					OFFSET	0.008423	-2.933000	-1.684880
				}
			}
		}
	}
	JOINT RightHip
	{
		OFFSET	-4.740440	-3.195970	-0.322709
		CHANNELS 3 Zrotation Xrotation Yrotation
		JOINT RightKnee
		{
			OFFSET	1.605680	-15.592300	1.005510
			CHANNELS 3 Zrotation Xrotation Yrotation
			JOINT RightAnkle
			{
				OFFSET	0.632401	-16.421000	-1.413730
				CHANNELS 3 Zrotation Xrotation Yrotation
				End Site
				{
					OFFSET	-0.008423	-2.933000	-1.684880
				}
			}
		}
	}
	JOINT Chest
	{
		OFFSET	0.000000	3.468200	0.078401
		CHANNELS 3 Zrotation Xrotation Yrotation
		JOINT LeftCollar
		{
			OFFSET	3.857650	15.070700	-0.011583
			CHANNELS 3 Zrotation Xrotation Yrotation
			JOINT LeftShoulder
			{
				OFFSET	3.979720	-1.940530	-0.165223
				CHANNELS 3 Zrotation Xrotation Yrotation
				JOINT LeftElbow
				{
					OFFSET	0.615844	-10.986600	-0.673886
					CHANNELS 3 Zrotation Xrotation Yrotation
					JOINT LeftWrist
					{
						OFFSET	0.826843	-10.854500	1.034220
						CHANNELS 3 Zrotation Xrotation Yrotation
						End Site
						{
							OFFSET	-1.679080	-8.456540	0.936217
						}
					}
				}
			}
		}
		JOINT RightCollar
		{
			OFFSET	-3.857650	15.070700	-0.011583
			CHANNELS 3 Zrotation Xrotation Yrotation
			JOINT RightShoulder
			{
				OFFSET	-3.979720	-1.940530	-0.165223
				CHANNELS 3 Zrotation Xrotation Yrotation
				JOINT RightElbow
				{
					OFFSET	-0.615845	-10.986600	-0.673886
					CHANNELS 3 Zrotation Xrotation Yrotation
					JOINT RightWrist
					{
						OFFSET	-0.826843	-10.854500	1.034220
						CHANNELS 3 Zrotation Xrotation Yrotation
						End Site
						{
							OFFSET	1.679080	-8.456540	0.936217
						}
					}
				}
			}
		}
		JOINT Neck
		{
			OFFSET	0.000000	15.101400	0.055730
			CHANNELS 3 Zrotation Xrotation Yrotation
			JOINT Head
			{
				OFFSET	0.000000	4.185120	1.488260
				CHANNELS 3 Zrotation Xrotation Yrotation
				End Site
				{
					OFFSET	0.000000	7.773420	-0.106016
				}
			}
		}
	}
}
MOTION
Frames:     14
Frame Time: 0.016667
-9.000969	36.529648	96.686806	-1.484833	-3.913257	0.494455	3.059400	-23.881142	12.908276	0.369188	35.709293	2.453645	4.020048	5.904300	-2.151042	-1.763620	11.262942	-0.270812	9.435166	38.890881	12.046648	8.353757	18.225628	6.302570	3.368837	20.327303	0.509114	3.767274	5.627987	0.503988	7.206867	2.321535	10.327278	-22.859652	-32.976929	-26.009714	13.822399	10.925065	-22.229660	-2.437901	4.241848	-0.574970	-6.526095	-3.417480	-0.047227	-0.938848	-15.336090	18.683950	-9.915623	9.480625	15.587344	-0.796083	10.271236	-5.859791	7.383610	3.550222	-0.071752	
-8.890854	36.547424	97.102829	-1.068529	-3.666450	1.140375	2.241383	-23.391695	12.595545	0.366033	35.664940	2.218507	4.129543	5.152042	-2.272415	-2.698544	9.571877	-0.793247	10.436274	41.830212	12.272713	9.700736	20.335484	4.801625	3.267147	20.739307	0.099317	3.745114	5.890936	0.456186	7.476506	2.058901	10.315201	-23.590475	-33.774700	-26.411106	13.826266	10.876322	-22.065783	-2.503367	4.566195	-0.263357	-6.756175	-4.008254	-0.346950	-0.854407	-15.705971	18.790146	-10.028008	9.371361	15.492583	-0.977835	10.153023	-5.936565	7.577466	3.710336	-0.068867	
-8.867563	36.549782	97.240364	-0.934323	-3.569048	1.336342	1.955544	-23.269917	12.499602	0.481194	35.677155	2.050997	4.098739	4.905077	-2.267828	-3.017909	8.922055	-1.022479	10.770229	42.910934	12.453677	10.088792	20.913771	4.219123	3.268362	20.972509	-0.003130	3.707975	5.837764	0.412562	7.552145	1.977627	10.313185	-23.811056	-34.066936	-26.528767	13.865849	10.876558	-21.965643	-2.554859	4.551929	-0.208100	-6.876112	-4.140395	-0.373916	-0.797859	-15.921902	18.806614	-10.114677	9.325937	15.446222	-1.051911	10.083205	-5.941017	7.620172	3.674971	-0.101101	
-8.786433	36.543125	97.608032	-0.571503	-3.333221	1.785201	1.272559	-22.926115	12.345757	0.623576	35.800652	1.721583	4.133997	4.174138	-2.285418	-3.927017	6.858690	-1.653129	11.776723	46.385376	12.907620	10.580689	22.360891	2.855812	3.211276	21.648867	-0.215955	3.644810	5.732601	0.336546	7.741092	1.703748	10.362090	-24.423361	-34.933872	-26.671349	14.056450	10.777184	-21.666407	-2.649719	4.528006	-0.059215	-7.201972	-4.550586	-0.440616	-0.746095	-16.534273	18.785038	-10.392389	9.115897	15.171843	-1.170433	9.869649	-6.074269	7.612373	3.611080	-0.034931	
-8.761234	36.539856	97.729012	-0.457994	-3.327147	1.896628	1.114589	-22.738695	12.349174	0.608346	35.878380	1.650759	4.140399	3.917870	-2.312768	-4.233621	6.193306	-1.811626	12.210513	47.560108	12.968451	10.272416	23.010860	2.665201	3.186427	21.919867	-0.256141	3.620744	5.697453	0.308472	7.791419	1.608307	10.381054	-24.595438	-35.217930	-26.686958	14.143332	10.754471	-21.561649	-2.670585	4.533457	-0.023798	-7.308789	-4.696229	-0.464165	-0.701098	-16.722372	18.743095	-10.546661	9.037124	15.055146	-1.213301	9.812220	-6.128065	7.607258	3.596789	-0.001977	
-8.684444	36.526695	98.078125	-0.090081	-3.383302	2.207930	0.583004	-22.159689	12.449552	0.708352	36.150337	1.356169	4.182255	3.308950	-2.424278	-5.173135	4.105846	-2.434798	13.537011	51.276428	13.472364	8.087394	24.196867	2.258983	3.022302	22.657387	-0.411680	3.594581	5.658949	0.237502	7.910370	1.416930	10.519959	-25.065619	-36.090397	-26.789732	14.354435	10.658991	-21.143141	-2.617585	4.655671	0.047161	-7.695804	-5.123552	-0.432452	-0.601292	-17.293383	18.518253	-10.994653	8.854197	14.614674	-1.205046	9.760601	-6.264756	7.493320	3.520206	0.167995	
-8.668581	36.502815	98.192429	0.263526	-3.661391	2.541146	0.118216	-21.724993	12.250170	0.701019	36.269096	1.277413	4.222344	3.133952	-2.449120	-5.670121	3.684293	-2.888973	14.004815	52.527344	13.565208	7.104759	24.140285	2.132359	2.870583	23.143702	-0.748635	3.566152	5.658201	0.238548	7.934261	1.337745	10.513700	-25.161671	-36.385887	-26.747776	14.435011	10.617885	-21.022968	-2.620328	4.700725	0.097858	-7.846042	-5.233369	-0.407983	-0.592038	-17.523621	18.380371	-11.099352	8.809628	14.496293	-1.229782	9.742041	-6.283087	7.451824	3.474146	0.199746	
-8.584061	36.486336	98.476349	0.425907	-3.930556	2.792869	-0.112120	-21.129602	12.417610	0.686446	36.706882	0.949907	4.383070	2.707212	-2.362150	-6.383685	1.569330	-3.566211	15.466957	56.420517	13.011434	4.443841	22.884693	1.782578	2.891994	23.980772	-0.966066	3.578326	5.652099	0.172047	7.980943	1.085440	10.570791	-25.376818	-37.151550	-26.605576	14.712245	10.472960	-20.625608	-2.553274	4.763638	0.232470	-7.999432	-5.723487	-0.733541	-0.683004	-17.969141	18.367723	-11.391382	8.768556	14.283785	-1.227286	9.672032	-6.310740	7.407772	3.388301	0.388616	
-8.562526	36.481739	98.570366	0.484952	-4.185763	3.021715	-0.238003	-20.769690	12.338072	0.708031	36.845608	0.789463	4.445813	2.575779	-2.283709	-6.659197	1.023592	-3.803098	16.340357	58.355793	12.080971	3.355930	21.692938	1.910290	2.975381	24.411129	-1.221842	3.590045	5.636610	0.147601	7.985392	1.009071	10.603164	-25.429811	-37.384506	-26.569155	14.812657	10.429701	-20.496758	-2.509368	4.769332	0.254898	-8.053025	-5.868372	-0.806163	-0.690334	-18.118792	18.376894	-11.489973	8.759989	14.237023	-1.215683	9.758671	-6.180831	7.384089	3.231917	0.310398	
-8.506842	36.462673	98.818459	0.526573	-4.445554	3.228265	-0.322631	-20.201649	12.655990	0.799551	37.216709	0.238143	4.803781	2.061898	-2.033915	-7.297156	-1.193100	-3.944896	18.448229	61.239613	9.971798	1.279473	20.995386	1.480844	3.100761	25.049187	-1.533735	3.609818	5.679461	0.164953	7.939402	0.725514	10.700734	-25.398165	-37.856678	-26.409283	15.230290	10.122824	-19.972914	-2.363780	4.810081	0.389385	-8.241252	-6.229770	-0.979754	-0.681179	-18.428049	18.345268	-11.729459	8.698840	14.135146	-1.201703	9.617321	-5.986885	7.289536	3.328776	0.401326	
-8.475685	36.454483	98.903214	0.565212	-4.711520	3.433153	-0.465626	-19.814001	12.586605	0.850775	37.310211	0.078979	4.954581	1.861013	-1.911165	-7.530148	-1.760103	-4.122253	19.353151	62.349972	8.987643	0.397076	20.833639	1.413259	3.234781	25.412827	-1.766674	3.591481	5.680301	0.125027	7.951965	0.626816	10.725666	-25.392735	-37.958534	-26.337467	15.512738	10.049887	-19.866165	-2.312455	4.800022	0.396188	-8.303284	-6.290573	-1.038440	-0.712448	-18.536772	18.343052	-11.774343	8.699087	14.097025	-1.209888	9.611635	-5.947947	7.256465	3.312646	0.393423	
-8.406433	36.433323	99.140976	0.614538	-4.965727	3.655370	-0.796154	-19.175926	12.735306	1.171284	37.460659	-0.413106	5.427524	1.249580	-1.473976	-8.079342	-4.041345	-4.493417	21.034559	65.036430	7.214684	-0.960070	21.046131	0.501779	3.514998	25.790268	-2.004181	3.602086	5.743130	-0.000568	7.846602	0.438577	10.754072	-25.239370	-38.219078	-26.196032	15.530715	10.087421	-19.817091	-2.225578	4.886999	0.358874	-8.492532	-6.524119	-1.162444	-0.769587	-18.709362	18.357332	-11.751248	8.759288	14.081851	-1.231334	9.685669	-5.958189	7.129832	3.320508	0.362689	
-8.379484	36.420536	99.217140	0.659186	-5.253510	3.888046	-1.005143	-18.769970	12.577390	1.291446	37.516399	-0.586969	5.612927	1.008833	-1.268379	-8.276855	-4.588429	-4.775666	21.049942	65.917770	6.927124	-0.977164	21.051167	0.346992	3.648038	26.080322	-2.229395	3.649612	5.772881	-0.046191	7.800691	0.392396	10.731006	-25.208611	-38.272205	-26.160524	15.706331	10.019523	-19.823448	-2.157525	4.902376	0.314431	-8.482803	-6.591763	-1.188460	-0.872153	-18.720671	18.364330	-11.740232	8.775199	14.094755	-1.186057	9.738043	-6.001106	7.037185	3.307555	0.392109	
-8.297603	36.386005	99.427246	0.664680	-5.602039	4.077439	-1.329979	-18.030699	12.595021	1.517425	37.607819	-1.088291	6.259031	0.229734	-0.585337	-8.744829	-6.758508	-5.150616	22.156206	68.191238	5.669013	-1.142992	21.187807	-0.304234	3.945755	26.440695	-2.301702	3.790059	5.805377	-0.201727	7.563635	0.286187	10.629600	-25.041138	-38.419147	-26.041544	15.663154	10.035774	-19.865702	-1.810310	4.958333	0.186380	-8.844022	-6.699381	-1.339951	-0.994531	-18.808659	18.369795	-11.592539	8.787194	14.094234	-1.118021	9.782519	-6.158988	6.810102	3.373698	0.409143	
